<svg id="구성_요소_92_3" data-name="구성 요소 92 – 3" xmlns="http://www.w3.org/2000/svg" width="76" height="56" viewBox="0 0 76 56">
  <g id="Home_Router">
    <path id="패스_224175" data-name="패스 224175" d="M41.926,220.986a8.32,8.32,0,0,0-7.482-.31L1.294,239.815c-1.917,1.106-1.676,3.043.537,4.32l32.077,18.519a8.32,8.32,0,0,0,7.482.31l33.151-19.14c1.917-1.106,1.676-3.042-.537-4.32Z" transform="translate(0 -207.711)" fill="#f0f0f0"/>
    <path id="패스_224176" data-name="패스 224176" d="M76.1,397.3l-.156,11.634-8.621,4.978V402.291L76.1,397.3ZM.1,396.634V408.5l10.185,1.744V398.931Z" transform="translate(-0.095 -374.755)" fill="#f0f0f0"/>
    <path id="패스_224177" data-name="패스 224177" d="M42.108,1.086C39.89-.2,36.53-.338,34.61.774L1.389,20.009c-1.921,1.111-1.68,3.057.538,4.341L34.071,42.962c2.218,1.284,5.578,1.423,7.5.311L74.791,24.038c1.92-1.112,1.679-3.057-.539-4.341ZM41.834,2.51a7.747,7.747,0,0,0-6.988-.29L3.884,20.146c-1.79,1.036-1.565,2.85.5,4.046L34.344,41.537a7.755,7.755,0,0,0,6.988.29L72.294,23.9c1.79-1.036,1.565-2.85-.5-4.046Z" transform="translate(-0.087 -0.023)" fill="#f5f5f5"/>
    <path id="패스_224179" data-name="패스 224179" d="M86.252,28.147a7.766,7.766,0,0,0-6.988-.289L48.3,45.733c-1.79,1.033-1.565,2.841.5,4.034l29.957,17.3a7.775,7.775,0,0,0,6.988.289l30.961-17.875c1.79-1.033,1.565-2.841-.5-4.034Z" transform="translate(-44.505 -25.667)" fill="#fff"/>
  </g>
  <rect id="사각형_12924" data-name="사각형 12924" width="2" height="6.5" rx="1" transform="translate(37 39.612)" fill="#cbcbcb"/>
</svg>
