<svg id="구성_요소_88_1" data-name="구성 요소 88 – 1" xmlns="http://www.w3.org/2000/svg" width="16" height="16" viewBox="0 0 16 16">
  <path id="Icon_iconamoon-notification-fill" data-name="Icon iconamoon-notification-fill" d="M11.452,5.5A1.545,1.545,0,0,0,9.922,7.264a5.409,5.409,0,0,0-3.878,5.188v4.12H5.272a.772.772,0,0,0,0,1.545H17.631a.772.772,0,0,0,0-1.545h-.772v-4.12a5.409,5.409,0,0,0-3.877-5.188A1.545,1.545,0,0,0,11.452,5.5ZM13,19.661a.772.772,0,0,1-.772.772H10.679a.772.772,0,0,1,0-1.545h1.545A.772.772,0,0,1,13,19.661Z" transform="translate(-3.452 -4.967)" fill="#47b752"/>
  <rect id="사각형_12865" data-name="사각형 12865" width="16" height="16" fill="none"/>
</svg>
