<svg id="구성_요소_58_1" data-name="구성 요소 58 – 1" xmlns="http://www.w3.org/2000/svg" xmlns:xlink="http://www.w3.org/1999/xlink" width="20" height="20" viewBox="0 0 20 20">
  <defs>
    <clipPath id="clip-path">
      <rect id="사각형_257" data-name="사각형 257" width="20" height="20" fill="#47b752"/>
    </clipPath>
  </defs>
  <g id="그룹_28" data-name="그룹 28" clip-path="url(#clip-path)">
    <path id="패스_62" data-name="패스 62" d="M10,20a3.183,3.183,0,0,1-2.3-1,3.624,3.624,0,0,1-1.008-2.482v-.134H.806a.862.862,0,0,1,0-1.72h1.7V7.991A7.763,7.763,0,0,1,10,0a7.763,7.763,0,0,1,7.493,7.991v6.678h1.7a.862.862,0,0,1,0,1.72h-5.88v.034a3.63,3.63,0,0,1-.933,2.5A3.2,3.2,0,0,1,10.053,20H10M8.3,16.5a1.862,1.862,0,0,0,.517,1.275,1.629,1.629,0,0,0,2.406-.041,1.867,1.867,0,0,0,.479-1.292v-.048H8.3v.034l-.806.086Zm4.209-1.826H15.88V7.991A6.092,6.092,0,0,0,10,1.72,6.092,6.092,0,0,0,4.12,7.991v6.678Z" transform="translate(0 0)" fill="#47b752"/>
  </g>
</svg>
