<svg id="구성_요소_69_4" data-name="구성 요소 69 – 4" xmlns="http://www.w3.org/2000/svg" width="20" height="20" viewBox="0 0 20 20">
  <circle id="타원_125" data-name="타원 125" cx="10" cy="10" r="10" fill="#818181"/>
  <path id="Icon_box-door-open-solid" data-name="Icon box-door-open-solid" d="M7.5,5.45V16.884a.817.817,0,0,0,.817.817h2.45V16.068H9.133v-9.8h1.633V4.634H8.317A.817.817,0,0,0,7.5,5.45Zm11.632-.792L12.6,3.025a.817.817,0,0,0-1.014.792v14.7a.815.815,0,0,0,1.014.792l6.534-1.633a.817.817,0,0,0,.619-.792V5.45a.817.817,0,0,0-.619-.792Zm-3.465,6.663a.818.818,0,0,1-1.633,0v-.308a.817.817,0,1,1,1.633,0v.307Z" transform="translate(-3.625 -1.167)" fill="#fff"/>
  <rect id="사각형_12813" data-name="사각형 12813" width="20" height="20" fill="none"/>
</svg>
