<svg id="구성_요소_96_1" data-name="구성 요소 96 – 1" xmlns="http://www.w3.org/2000/svg" width="20" height="20" viewBox="0 0 20 20">
  <circle id="타원_123" data-name="타원 123" cx="10" cy="10" r="10" fill="#ef5b54"/>
  <g id="그룹_140" data-name="그룹 140" transform="translate(-212.999 -548.999)">
    <g id="그룹_20" data-name="그룹 20" transform="translate(217 553)">
      <path id="패스_71" data-name="패스 71" d="M3.428,0H8.57A3.428,3.428,0,0,1,12,3.428V8.57A3.428,3.428,0,0,1,8.57,12H3.428A3.428,3.428,0,0,1,0,8.57V3.428A3.428,3.428,0,0,1,3.428,0Z" fill="#fff"/>
    </g>
    <path id="패스_224180" data-name="패스 224180" d="M4,0A4,4,0,1,1,0,4,4,4,0,0,1,4,0Z" transform="translate(218.999 554.999)" fill="#ef5b54"/>
    <g id="그룹_127" data-name="그룹 127" transform="translate(219.727 555.727)">
      <circle id="타원_95" data-name="타원 95" cx="3" cy="3" r="3" transform="translate(0.272 0.272)" fill="#fff"/>
    </g>
  </g>
</svg>
