<svg id="구성_요소_46_1" data-name="구성 요소 46 – 1" xmlns="http://www.w3.org/2000/svg" width="48" height="48" viewBox="0 0 48 48">
  <path id="bg" d="M47.992,24.335a52.657,52.657,0,0,0-.955-11.21c-1.391-6.709-5.4-10.773-12.114-12.082a57.038,57.038,0,0,0-21.718,0C6.494,2.325,2.374,6.389,1.064,13.1a56.458,56.458,0,0,0,0,21.819c1.282,6.491,5.184,10.582,11.7,11.919a54.422,54.422,0,0,0,21.718.136c7.858-1.555,11.7-5.837,12.878-13.719A57.779,57.779,0,0,0,47.992,24.335Z" fill="#f3f3ff"/>
  <g id="그룹_117" data-name="그룹 117" transform="translate(-9260 -5711)">
    <rect id="사각형_310" data-name="사각형 310" width="18" height="24" rx="2" transform="translate(9273 5723)" fill="#888cf7"/>
    <rect id="사각형_311" data-name="사각형 311" width="13" height="4" rx="1" transform="translate(9282 5741)" fill="#585dd5"/>
    <circle id="타원_101" data-name="타원 101" cx="1.5" cy="1.5" r="1.5" transform="translate(9275.5 5726)" fill="#f3f3ff"/>
    <circle id="타원_102" data-name="타원 102" cx="1.5" cy="1.5" r="1.5" transform="translate(9280.5 5726)" fill="#f3f3ff"/>
    <circle id="타원_103" data-name="타원 103" cx="1.5" cy="1.5" r="1.5" transform="translate(9285.5 5726)" fill="#f3f3ff"/>
    <circle id="타원_101-2" data-name="타원 101" cx="1.5" cy="1.5" r="1.5" transform="translate(9275.5 5731)" fill="#f3f3ff"/>
    <circle id="타원_102-2" data-name="타원 102" cx="1.5" cy="1.5" r="1.5" transform="translate(9280.5 5731)" fill="#f3f3ff"/>
    <circle id="타원_103-2" data-name="타원 103" cx="1.5" cy="1.5" r="1.5" transform="translate(9285.5 5731)" fill="#f3f3ff"/>
    <circle id="타원_102-3" data-name="타원 102" cx="1.5" cy="1.5" r="1.5" transform="translate(9280.5 5736)" fill="#f3f3ff"/>
  </g>
</svg>
