<svg id="구성_요소_111_1" data-name="구성 요소 111 – 1" xmlns="http://www.w3.org/2000/svg" width="20" height="20" viewBox="0 0 20 20">
  <circle id="타원_121" data-name="타원 121" cx="10" cy="10" r="10" fill="#ffc94e"/>
  <path id="합치기_3" data-name="합치기 3" d="M15152.258,4520.774a.727.727,0,0,1-.6-.41l-1.893-3.832-1.626-1.772a.7.7,0,0,1-.179-.494l.136-2.41-.421.449-.449,2.571a.722.722,0,0,1-.834.569.7.7,0,0,1-.6-.8l.482-2.766a.689.689,0,0,1,.174-.347l1.936-2.074a.748.748,0,0,1,.543-.234h1.4a1.176,1.176,0,0,1,1.2,1.275l-.417,3.766a1.517,1.517,0,0,1-.085.366l-.308.835.207.222a.788.788,0,0,1,.11.161l1.933,3.922a.665.665,0,0,1-.047.7.733.733,0,0,1-.6.3A.489.489,0,0,1,15152.258,4520.774Zm-6.189-.156a.67.67,0,0,1-.131-.97l2.266-2.814v-1.309l1.164,1.27.254.485a.748.748,0,0,1-.115.213l-2.42,3a.731.731,0,0,1-.574.272A.757.757,0,0,1,15146.068,4520.619Zm6.729-7.469a.73.73,0,0,1-.512-.2l-.478-.455.2-1.7a.374.374,0,0,1,.006-.06l1.086,1.036h1.394a.692.692,0,1,1,0,1.383Zm-4.354-5.766a1.453,1.453,0,1,1,1.453,1.383A1.419,1.419,0,0,1,15148.444,4507.384Z" transform="translate(-15139.785 -4503.389)" fill="#fff"/>
</svg>
