<svg id="구성_요소_93_1" data-name="구성 요소 93 – 1" xmlns="http://www.w3.org/2000/svg" width="20" height="20" viewBox="0 0 20 20">
  <g id="그룹_194" data-name="그룹 194" transform="translate(10928 6281)">
    <circle id="타원_120" data-name="타원 120" cx="10" cy="10" r="10" transform="translate(-10928 -6281)" fill="#ef5b54"/>
    <path id="Icon_bootstrap-door-open-fill" data-name="Icon bootstrap-door-open-fill" d="M2.674,15.208a.424.424,0,1,0,0,.848h11.02a.424.424,0,0,0,0-.848H12.422V6.119A1.272,1.272,0,0,0,11.15,4.848h-.424V4.424A.424.424,0,0,0,10.243,4L4.31,4.852a.424.424,0,0,0-.364.42v9.937ZM10.727,5.7h.424a.424.424,0,0,1,.424.424v9.089h-.848ZM8.607,10.97c-.234,0-.424-.38-.424-.848s.19-.848.424-.848.424.38.424.848S8.841,10.97,8.607,10.97Z" transform="translate(-10926.184 -6281.028)" fill="#fff"/>
  </g>
</svg>
