<svg id="구성_요소_99_2" data-name="구성 요소 99 – 2" xmlns="http://www.w3.org/2000/svg" width="28" height="28" viewBox="0 0 28 28">
  <path id="bg" d="M28,14.2a30.717,30.717,0,0,0-.557-6.539A8.338,8.338,0,0,0,20.372.609,33.272,33.272,0,0,0,7.7.609,8.271,8.271,0,0,0,.621,7.641a32.934,32.934,0,0,0,0,12.728,8.187,8.187,0,0,0,6.828,6.953,31.746,31.746,0,0,0,12.669.08c4.584-.907,6.828-3.4,7.512-8A33.7,33.7,0,0,0,28,14.2Z" fill="#ebf7ec"/>
  <g id="그룹_13" data-name="그룹 13" transform="translate(6.449 8.838)">
    <path id="패스_33" data-name="패스 33" d="M3,21.02c0-1.424,0-2.135.442-2.578S4.6,18,6.02,18h9.061c1.424,0,2.135,0,2.578.442S18.1,19.6,18.1,21.02s0,2.135-.442,2.578-1.154.442-2.578.442H6.02c-1.424,0-2.135,0-2.578-.442S3,22.444,3,21.02Z" transform="translate(-3 -11.717)" fill="#47b752"/>
    <path id="패스_34" data-name="패스 34" d="M24.75,15.765V13.5" transform="translate(-13.801 -9.482)" fill="none" stroke="#47b752" stroke-linecap="round" stroke-width="2"/>
  </g>
  <g id="Icon_solar-wi-fi-router-minimalistic-linear" data-name="Icon solar-wi-fi-router-minimalistic-linear" transform="translate(9.236 17.009)">
    <path id="패스_32" data-name="패스 32" d="M8.864,23.182a.682.682,0,1,1-.682-.682A.682.682,0,0,1,8.864,23.182Zm2.046,0a.682.682,0,1,1-.682-.682A.682.682,0,0,1,10.91,23.182Z" transform="translate(-7.5 -22.5)" fill="#fff"/>
  </g>
  <circle id="타원_124" data-name="타원 124" cx="2.5" cy="2.5" r="2.5" transform="translate(15 6)" fill="#3aa044"/>
</svg>
