<svg id="구성_요소_76_1" data-name="구성 요소 76 – 1" xmlns="http://www.w3.org/2000/svg" width="16" height="16" viewBox="0 0 16 16">
  <rect id="사각형_12828" data-name="사각형 12828" width="16" height="16" fill="none"/>
  <path id="Icon_bootstrap-calendar4" data-name="Icon bootstrap-calendar4" d="M3.181,0a.454.454,0,0,1,.454.454V.909h7.272V.454a.454.454,0,1,1,.909,0V.909h.909a1.818,1.818,0,0,1,1.818,1.818v10a1.818,1.818,0,0,1-1.818,1.818H1.818A1.818,1.818,0,0,1,0,12.726v-10A1.818,1.818,0,0,1,1.818.909h.909V.454A.454.454,0,0,1,3.181,0ZM1.818,1.818a.909.909,0,0,0-.909.909v.909H13.635V2.727a.909.909,0,0,0-.909-.909ZM13.635,4.545H.909v8.181a.909.909,0,0,0,.909.909H12.726a.909.909,0,0,0,.909-.909Z" transform="translate(0.834 0.833)" fill="#404040"/>
</svg>
