<svg xmlns="http://www.w3.org/2000/svg" xmlns:xlink="http://www.w3.org/1999/xlink" width="274" height="248" viewBox="0 0 274 248">
  <defs>
    <clipPath id="clip-path">
      <rect id="사각형_335" data-name="사각형 335" width="160" height="150" fill="#fff"/>
    </clipPath>
    <clipPath id="clip-path-2">
      <rect id="사각형_329" data-name="사각형 329" width="127.223" height="60.585" fill="none"/>
    </clipPath>
  </defs>
  <g id="그룹_146" data-name="그룹 146" transform="translate(-46 -341)">
    <g id="그룹_145" data-name="그룹 145" transform="translate(120 439)">
      <g id="그룹_144" data-name="그룹 144" opacity="0.1" clip-path="url(#clip-path)">
        <path id="패스_474" data-name="패스 474" d="M15.838,134.221C-.43,119.59-4.831,93.485,5.748,74.367S40.842,45.006,61.956,50.879c-3.764-12.087.787-26.049,9.559-35.208C84.88,1.715,106.591-3.615,124.952,2.52s32.435,23.408,34.716,42.557-7.332,39.2-23.7,49.51c8.918.334,18.1,8.5,19.962,17.192s-1.562,18-7.682,24.464-14.634,10.322-23.368,12.152-17.75,1.772-26.667,1.39c-28.144-1.208-61.47,3.237-82.375-15.563" transform="translate(0 0)" fill="#fff"/>
      </g>
    </g>
    <g id="그룹_134" data-name="그룹 134" transform="translate(63.065 440.929)">
      <g id="그룹_135" data-name="그룹 135" transform="translate(76.935 30.071)">
        <g id="그룹_132" data-name="그룹 132">
          <g id="그룹_136" data-name="그룹 136">
            <path id="패스_411" data-name="패스 411" d="M2262.177,337.061a.356.356,0,1,1,.356.356.356.356,0,0,1-.356-.356" transform="translate(-2153.406 -334.781)" fill="#b7d3f3"/>
            <path id="패스_412" data-name="패스 412" d="M2291.487,343.885a.356.356,0,1,1,.138.484.356.356,0,0,1-.138-.484" transform="translate(-2179.868 -341.112)" fill="#b7d3f3"/>
            <path id="패스_413" data-name="패스 413" d="M2315.852,365.3a.356.356,0,1,1-.106.492.357.357,0,0,1,.106-.492" transform="translate(-2201.792 -360.605)" fill="#b7d3f3"/>
            <path id="패스_414" data-name="패스 414" d="M2326.663,397.151a.356.356,0,1,1-.356.356.356.356,0,0,1,.356-.356" transform="translate(-2211.393 -389.479)" fill="#b7d3f3"/>
            <path id="패스_415" data-name="패스 415" d="M2317.868,432.523a.356.356,0,1,1-.5,0,.356.356,0,0,1,.5,0" transform="translate(-2203.213 -421.393)" fill="#b7d3f3"/>
            <path id="패스_416" data-name="패스 416" d="M2294.733,455.719a.356.356,0,1,1-.5,0,.357.357,0,0,1,.5,0" transform="translate(-2182.294 -442.383)" fill="#b7d3f3"/>
            <path id="패스_417" data-name="패스 417" d="M2262.177,465.321a.356.356,0,1,1,.356.356.356.356,0,0,1-.356-.356" transform="translate(-2153.406 -450.844)" fill="#b7d3f3"/>
            <path id="패스_418" data-name="패스 418" d="M2233.462,343.885a.356.356,0,1,0-.138.484.356.356,0,0,0,.138-.484" transform="translate(-2126.838 -341.112)" fill="#b7d3f3"/>
            <path id="패스_419" data-name="패스 419" d="M2209.1,365.3a.356.356,0,1,0,.106.492.357.357,0,0,0-.106-.492" transform="translate(-2104.914 -360.605)" fill="#b7d3f3"/>
            <path id="패스_420" data-name="패스 420" d="M2198.285,397.151a.356.356,0,1,0,.357.356.356.356,0,0,0-.357-.356" transform="translate(-2095.313 -389.479)" fill="#b7d3f3"/>
            <path id="패스_421" data-name="패스 421" d="M2207.08,432.523a.356.356,0,1,0,.5,0,.356.356,0,0,0-.5,0" transform="translate(-2103.493 -421.393)" fill="#b7d3f3"/>
            <path id="패스_422" data-name="패스 422" d="M2230.217,455.719a.356.356,0,1,0,.5,0,.356.356,0,0,0-.5,0" transform="translate(-2124.413 -442.383)" fill="#b7d3f3"/>
            <path id="패스_423" data-name="패스 423" d="M2264.868,397.507a.356.356,0,1,1,.356.356.356.356,0,0,1-.356-.356" transform="translate(-2155.839 -389.479)" fill="#b7d3f3"/>
            <rect id="사각형_327" data-name="사각형 327" width="0.097" height="4.45" transform="translate(109.337 3.63)" fill="#b7d3f3"/>
            <rect id="사각형_328" data-name="사각형 328" width="2.999" height="0.292" transform="translate(109.236 7.928) rotate(-38.139)" fill="#b7d3f3"/>
            <g id="그룹_130" data-name="그룹 130" transform="translate(0 45.118)" opacity="0.4">
              <g id="그룹_129" data-name="그룹 129">
                <g id="그룹_128" data-name="그룹 128" clip-path="url(#clip-path-2)">
                  <path id="패스_424" data-name="패스 424" d="M1475.84,834.261c.318.755,3.374,1.456,7.909,2.076.8.109,1.643.216,2.528.32,15.434,1.818,57.707,2.833,60.313,2.3,3.6-.741,10.765-36.948,10.765-36.948s-21.1-.366-37.849-.544c-5.731-.06-25.667-.212-29.364-.212-5.726,0-14.815,31.788-14.3,33.011" transform="translate(-1442.287 -801.25)" fill="#b0d4ff"/>
                  <path id="패스_425" data-name="패스 425" d="M1479.547,829.617s6.477-24.809,6.944-26.894a1.638,1.638,0,0,1,1.5-1.352c-1.138-.109-1.967-.117-1.967-.117A5.259,5.259,0,0,0,1481.07,805c-1.569,4.889-4.685,14.281-7.611,23.463.148,0,6.088,1.151,6.088,1.151" transform="translate(-1440.156 -801.254)" fill="#b0d4ff"/>
                  <path id="패스_426" data-name="패스 426" d="M1129.142,1061.822c1.033,6.223,7.787,10.187,14.715,10.187h13.722l-1.063-35.955s-13.1-4.27-16.39-.511c-2.881,3.293-10.693,16.327-11.1,24.042a10.233,10.233,0,0,0,.121,2.238" transform="translate(-1129.006 -1011.492)" fill="#b0d4ff"/>
                  <path id="패스_427" data-name="패스 427" d="M1130.415,1320.231c1.033,6.223,7.787,10.187,14.715,10.187h6.73c-4.488-2.86-8.547-11.676-21.445-10.187" transform="translate(-1130.279 -1269.901)" fill="#8bb9ef"/>
                  <path id="패스_428" data-name="패스 428" d="M1232.535,1044.561s-18.51-8.884-22.016-3.08c-1.862,3.081-6.985,15.374-7.363,23.088-.367,7.5,6.539,12.425,13.644,12.425h12.619Z" transform="translate(-1195.974 -1016.477)" fill="#77a4e5"/>
                  <path id="패스_429" data-name="패스 429" d="M1208.146,1111.852q.307.246.63.484a28.612,28.612,0,0,0,10.149,4.51,39.97,39.97,0,0,0,9.767,1.1l6,0h.081l28.4.007,16.28,0h.241v-.007l.565-2.954,5.155-29.8s-71.34-1.606-77.141,1.705c-2.694,1.537-4.222,7.906-5.07,14.923-.451,3.737,1.461,7.244,4.939,10.025" transform="translate(-1195.974 -1057.392)" fill="#9fc3f7"/>
                  <path id="패스_430" data-name="패스 430" d="M1254.9,1358.922q.307.246.63.484a28.607,28.607,0,0,0,10.15,4.51,39.968,39.968,0,0,0,9.767,1.1l6,0h.081l28.4.007,16.28,0,.242-.007.565-2.954a195.4,195.4,0,0,0-38.19-3.735c-13.756.145-25.274.127-33.927.59" transform="translate(-1242.727 -1304.462)" fill="#8bb3ee"/>
                  <path id="패스_431" data-name="패스 431" d="M1847.6,1061.453c1.113,6.036,7.219,9.861,13.477,9.861h12.619l-.987-36.273s-12.039-3.951-15.063-.192c-2.649,3.293-9.834,16.327-10.212,24.042a11.063,11.063,0,0,0,.167,2.563" transform="translate(-1777.958 -1010.797)" fill="#d2e3fc"/>
                  <path id="패스_432" data-name="패스 432" d="M1849.286,1323.549c1.113,6.036,7.219,9.861,13.477,9.861h10.1c-4.727-3.012-11.091-11.335-23.575-9.861" transform="translate(-1779.645 -1272.894)" fill="#afcdfb"/>
                  <path id="패스_433" data-name="패스 433" d="M1921.786,852.163a11.066,11.066,0,0,0,3.539,5.981h0a13.811,13.811,0,0,0,3.584,2.3,15.5,15.5,0,0,0,5.217,1.3l.282.017.225.009c.125.005.25.009.376.01l.2,0h12.619v-.006l.729.009c1.3.015,2.656.029,3.915.039l.624.005h.227c1.244.008,2.344.012,3.128.007a22.049,22.049,0,0,0,3.121-.226,14.617,14.617,0,0,0,3.478-.936q.284-.118.557-.248t.549-.28a11.024,11.024,0,0,0,1.369-.877,11.84,11.84,0,0,0,2.911-3.214,17.155,17.155,0,0,0,1.513-3.1,28.313,28.313,0,0,0,1.3-4.834c.009-.046.017-.092.026-.139q.227-1.248.394-2.627.075-.628.139-1.284.226-2.316.3-4.985.007-.232.012-.469l0-.1q.047-2.123.005-4.473-.018-1.031-.053-2.106-.015-.489-.035-.987-.1-2.5-.278-5.243-.081-1.232-.179-2.514-.4-5.283-1.082-11.438c-.511-4.665-1.1-7.926-1.957-8.668-1.264-1.1-3.9-1.536-5.735-1.713h0c-1.138-.11-1.966-.118-1.966-.118h-.122l-.087,0c-.07,0-.139.007-.208.013l-.116.011-.076.009-.115.016c-.068.01-.136.022-.2.034l-.139.029-.012,0-.1.024c-.064.015-.127.032-.189.05l-.127.039-.088.029a5.107,5.107,0,0,0-1,.466,5.47,5.47,0,0,0-2.365,3.035c-1.465,4.577-4.079,12.761-6.8,21.32-.013.043-.027.086-.041.129q-.235.737-.47,1.479c-.015.05-.031.1-.048.15l-.024.076c-.154-.064-.312-.132-.477-.2l-.017-.007c-.653-.272-1.391-.57-2.188-.873h0c-.413-.157-.841-.317-1.282-.476-1.246-.448-2.59-.892-3.952-1.274-.6-.17-1.213-.329-1.818-.469-.777-.181-1.548-.334-2.3-.448l-.065-.01-.266-.038c-.53-.073-1.048-.126-1.55-.155h0c-2.566-.148-4.692.334-5.664,1.948a30.383,30.383,0,0,0-1.4,2.763,88.019,88.019,0,0,0-3.731,9.76,45.331,45.331,0,0,0-2.228,10.632,11.066,11.066,0,0,0,.219,2.841" transform="translate(-1844.924 -801.255)" fill="#77a4e5"/>
                  <path id="패스_434" data-name="패스 434" d="M2206.214,829.617s6.476-24.809,6.944-26.894a1.638,1.638,0,0,1,1.5-1.352c-1.138-.109-1.966-.117-1.966-.117a5.26,5.26,0,0,0-4.952,3.749c-1.568,4.889-4.456,13.9-7.382,23.086.148,0,5.86,1.528,5.86,1.528" transform="translate(-2096.77 -801.254)" fill="#d2e3fc"/>
                </g>
              </g>
            </g>
            <path id="패스_435" data-name="패스 435" d="M2335.28,979.885v1.087c0,.38.123.691.273.691H2375.2c.15,0,.273-.311.273-.691v-1.087c0-.38-.124-.691-.273-.691h-39.651c-.15,0-.273.311-.273.691" transform="translate(-2219.943 -916.187)" fill="#9abfe2"/>
            <path id="패스_436" data-name="패스 436" d="M2335.28,979.885v1.087c0,.38.113.691.251.691h31.479c.138,0,.251-.311.251-.691v-1.087c0-.38-.113-.691-.251-.691h-31.479c-.138,0-.251.311-.251.691" transform="translate(-2219.943 -916.187)" fill="#dfebfd"/>
            <rect id="사각형_330" data-name="사각형 330" width="28.15" height="41.03" transform="translate(125.373 64.792)" fill="#579c88"/>
            <rect id="사각형_331" data-name="사각형 331" width="28.15" height="41.03" transform="translate(117.484 64.792)" fill="#68a990"/>
            <path id="패스_437" data-name="패스 437" d="M2373.128,1016.718h25.124v37.606h-25.124Zm24.853.271H2373.4v37.063h24.582Z" transform="translate(-2254.132 -950.767)" fill="#b7d3f3"/>
            <rect id="사각형_332" data-name="사각형 332" width="24.853" height="0.271" transform="translate(119.132 78.656)" fill="#b7d3f3"/>
            <rect id="사각형_333" data-name="사각형 333" width="24.853" height="0.271" transform="translate(119.132 91.074)" fill="#b7d3f3"/>
            <path id="패스_438" data-name="패스 438" d="M2472.915,1034.2h4.612a.407.407,0,1,0,0-.814h-4.612a.407.407,0,0,0,0,.814" transform="translate(-2343.903 -965.204)" fill="#b7d3f3"/>
            <path id="패스_439" data-name="패스 439" d="M2472.915,1162.472h4.612a.407.407,0,1,0,0-.814h-4.612a.407.407,0,0,0,0,.814" transform="translate(-2343.903 -1081.697)" fill="#b7d3f3"/>
            <path id="패스_440" data-name="패스 440" d="M2472.915,1296.189h4.612a.407.407,0,1,0,0-.814h-4.612a.407.407,0,1,0,0,.814" transform="translate(-2343.903 -1202.482)" fill="#b7d3f3"/>
            <path id="패스_441" data-name="패스 441" d="M1786.18,922.131l-.172-50.637s-.387-3.65-3.568-3.668c-3.395-.02-3.611,3.625-3.611,3.625a.386.386,0,0,0,.4.318.411.411,0,0,0,.427-.313s.167-2.811,2.784-2.8c2.453.015,2.751,2.828,2.751,2.828l-.3,50.635Z" transform="translate(-1716.389 -816.27)" fill="#233862"/>
            <path id="패스_442" data-name="패스 442" d="M1836.954,1405.626l2.111.013-.175-2.209s.02-.307-.407-.327c-.4-.018-1.178-.08-1.254.16-.067.21-.275,2.363-.275,2.363" transform="translate(-1768.924 -1299.776)" fill="#233862"/>
            <path id="패스_443" data-name="패스 443" d="M1773.022,840.071l-.148.723a4.64,4.64,0,0,0-4.44,3.8s-.237,1.595.916,1.261.979-1.15,2.611-1.586,2.7-.772,2.95-1.957l.274-1.318Z" transform="translate(-1706.969 -790.327)" fill="#ffb27d"/>
            <path id="패스_444" data-name="패스 444" d="M1826.459,516.138s-.969,3.72-1.807,7.122c-.337,1.37-.652,2.688-.875,3.691a8.528,8.528,0,0,0-.309,1.805c.7,1.157-.636,8.178-1.677,10.724-.092.226-.218.49-.37.784-1.452,2.8-5.305,8.3-5.305,8.3a4.781,4.781,0,0,1-1.782-.164,2.355,2.355,0,0,1-.984-.948,66.15,66.15,0,0,1,3.566-10.668c.77-1.554,1.977-16,3.462-17.941,1.239-1.616,6.081-2.709,6.081-2.709" transform="translate(-1747.632 -497.395)" fill="#f99746"/>
            <path id="패스_445" data-name="패스 445" d="M1895.012,617.238c.7,1.157-.636,8.178-1.677,10.724-.092.226-.218.49-.37.784-1.335-6.074.988-14.655.988-14.655a2.815,2.815,0,0,1,1.368,1.342,8.508,8.508,0,0,0-.309,1.805" transform="translate(-1819.199 -585.896)" fill="#ed7d2b"/>
            <path id="패스_446" data-name="패스 446" d="M1899.027,1357.484s.333,5.492-.705,5.563c-.138.009-5.259-.021-5.259-.021l-6.605-.039a2.257,2.257,0,0,1,2.033-1.934c1.913-.322,5.119-1.646,6.292-4.164,1.234-2.65,4.244.6,4.244.6" transform="translate(-1813.739 -1257.108)" fill="#0f2949"/>
            <path id="패스_447" data-name="패스 447" d="M2001.78,1358.1s.332,5.493-.705,5.563c-.138.009-5.259-.021-5.259-.021l-6.605-.039a2.258,2.258,0,0,1,2.034-1.934c1.913-.322,5.119-1.645,6.292-4.164,1.233-2.65,4.244.595,4.244.595" transform="translate(-1906.655 -1257.661)" fill="#163560"/>
            <path id="패스_448" data-name="패스 448" d="M1915.479,851.116a71.738,71.738,0,0,1,.329,8c-.188,3.762-.326,6.934-.326,6.934-2.486.829-7.032-.222-7.032-.222s-1.558-9.519-2.843-17.118c-.576-3.4-1.054-6.35-1.231-7.741-.572-4.495.806-28.366.806-28.366s6.739-4.263,9.5-2.028,4.454,4.412-.159,28.683c-.35,1.841.624,6.653.958,11.856" transform="translate(-1829.819 -763.972)" fill="#2b478b"/>
            <path id="패스_449" data-name="패스 449" d="M1915.479,851.116a86.025,86.025,0,0,1,.292,8.73c-2.319-2.484-6.887-7.722-10.164-11.135-.576-3.4-1.054-6.35-1.231-7.741-.572-4.495.806-28.366.806-28.366s6.739-4.263,9.5-2.028,4.454,4.412-.159,28.683c-.35,1.841.624,6.653.958,11.856" transform="translate(-1829.819 -763.972)" fill="#233862"/>
            <path id="패스_450" data-name="패스 450" d="M1976.722,812.647s.461,23.907,1.376,28.344,5.712,24.754,5.712,24.754,4.606.447,7.021-.57c0,0-.1-9.4-.882-14.922-.733-5.162-2.074-9.885-1.866-11.747,2.734-24.554.878-26.595-2.046-28.611s-9.314,2.752-9.314,2.752" transform="translate(-1895.37 -763.493)" fill="#2b478b"/>
            <path id="패스_451" data-name="패스 451" d="M2068.028,854.39a4.64,4.64,0,0,0,1.439,5.662s1.326.918,1.536-.264-.027-.771.3-2.428-.07-3.375-1.02-4.128Z" transform="translate(-1977.487 -802.252)" fill="#ffb27d"/>
            <path id="패스_452" data-name="패스 452" d="M1934.008,439.578s1.8,2.942,1.418,5.554l2.713,6.458,4.874-7.391a18.741,18.741,0,0,1-3.439-6.81Z" transform="translate(-1856.717 -425.966)" fill="#ffb27d"/>
            <path id="패스_453" data-name="패스 453" d="M1904.389,383.633s6.71.331,6.856-3.7,1.976-6.7-3.042-7.082c-4.126-.316-5.509,1.4-5.885,2.73s-.415,7.819,2.071,8.049" transform="translate(-1827.893 -367.504)" fill="#ffb27d"/>
            <path id="패스_454" data-name="패스 454" d="M1895.659,540.447c-1.442.126-3.429.28-5.838.417q-.722.041-1.493.08c-7.275.364-10.159-.831-10.159-.831s-.192-.157-.125-1.011c.342-4.4,1.283-5.69,1.176-6.526-.242-1.88-4.708-17.236-4.708-17.236a8.029,8.029,0,0,1,5.34-7.083,12.741,12.741,0,0,1,1.847-.6,2.222,2.222,0,0,0,2.527,1.5,8.645,8.645,0,0,0,4.946-2.436c.135,0,.188.005.188.005a14.829,14.829,0,0,1,.442,1.6c.43,1.906.677,3.91,1.836,5.414a40.978,40.978,0,0,1,2.955,4.379,36.231,36.231,0,0,1,1.795,3.5c4.7,10.565.969,18.689-.729,18.838" transform="translate(-1803 -488.881)" fill="#f99746"/>
            <path id="패스_455" data-name="패스 455" d="M2038.168,642.915c-1.442.126-3.428.28-5.838.417-.632-11.842,4.259-23.183,4.259-23.183a4.266,4.266,0,0,1,.514.431,7.5,7.5,0,0,1,1.8,3.5c1.4,5.376.15,14.089-.73,18.838" transform="translate(-1945.563 -591.461)" fill="#ed7d2b"/>
            <path id="패스_456" data-name="패스 456" d="M1899.619,442.553s-1.337,5.176.876,5.919,8.1.193,8.138-6.162c0,0-3.1,1.824-4.575,1.769s-2.423-.913-3.79-.255c0,0-.5-.036-.648-1.271" transform="translate(-1825.261 -430.374)" fill="#d5e5fb"/>
            <path id="패스_457" data-name="패스 457" d="M1926.623,362.534a1.164,1.164,0,0,0-.615-.631,7.177,7.177,0,0,0-6.543.116c2.335-3.1,7.923-2.41,9.084.4,1.9,4.592-1.627,5.525-1.627,5.525s-3.5-1.5-1.459-3.335a3.313,3.313,0,0,0,1.118-1.626,1.631,1.631,0,0,0,.043-.451" transform="translate(-1843.57 -355.879)" fill="#d5e5fb"/>
            <path id="패스_458" data-name="패스 458" d="M1914.707,465.552a1.511,1.511,0,0,0,1.216.674,1.423,1.423,0,0,0,1.136-.674,6.624,6.624,0,0,0-2.352,0" transform="translate(-1839.23 -451.275)" fill="#fff"/>
            <path id="패스_459" data-name="패스 459" d="M2061.561,862.525a23.806,23.806,0,0,0-1.192,2.218c-.132.431.4.447.7,0a8.741,8.741,0,0,0,.5-2.218" transform="translate(-1970.914 -810.612)" fill="#ffb27d"/>
            <path id="패스_460" data-name="패스 460" d="M2013.744,506.764s4.691.133,7.151,3.373c1.884,2.483,3.813,15.755,3.8,17.752s-2.215,13-3.42,14.193a4.512,4.512,0,0,1-1.809-.011,3.66,3.66,0,0,1-1.739-.857s.669-12.264.676-13.415c.01-1.666-5.138-11.895-5.138-11.895s-2.673-4.869.478-9.14" transform="translate(-1927.449 -488.937)" fill="#f99746"/>
            <path id="패스_461" data-name="패스 461" d="M2589.019,733.737s-2.817-3.287-.173-5.375a7.5,7.5,0,0,1,3.506-1.074s-2.231,3.742-1.51,4.114,2.186-4.349,2.186-4.349,4.395-.426,5.808.254c0,0-3.757,3.074-2.965,3.258s4.849-2.835,4.849-2.835,4.09.7,3.872,3.191-1.627,3.265-2.246,3.2-4.244-1.45-4.322-.942,2.1,2.166,3.629,2.244c0,0-2.884,3.18-4.8,2.262s-2.08-2.373-3.274-2.918-2.215-.544-1.721.012,2.655,1.1,3.338,2.306,1.3,2.024-.687,1.725-5.206-1.749-5.348-3.411Z" transform="translate(-2447.969 -687.989)" fill="#82b378"/>
            <path id="패스_462" data-name="패스 462" d="M2591.679,768.8s-11.109-.428-13.563,2.749a8.03,8.03,0,0,1-2.212,3.1l-.26.709s1.925-2.03,2.614-2.153c0,0-1.078-3.936,13.421-4.411" transform="translate(-2437.067 -725.822)" fill="#82b378"/>
            <path id="패스_463" data-name="패스 463" d="M2554.509,826.916a6.977,6.977,0,0,0-2.55,4.914l.433.039s.761-3.258,2.138-4.532-.021-.421-.021-.421" transform="translate(-2415.672 -778.162)" fill="#82b378"/>
            <path id="패스_464" data-name="패스 464" d="M2397.225,708.04s3.228-1.808,1.721-4.261a6.41,6.41,0,0,0-2.5-1.894s.689,3.659,0,3.745-.473-4.132-.473-4.132-3.4-1.636-4.735-1.507c0,0,2.109,3.572,1.42,3.486s-3.056-3.7-3.056-3.7-3.487-.645-4.046,1.42.344,3.1.861,3.228,3.83.086,3.744.517-2.324,1.119-3.572.732c0,0,1.377,3.4,3.185,3.228s2.367-1.291,3.486-1.377,1.937.215,1.377.517-2.454.1-3.357.867-1.635,1.242.043,1.586,4.691.129,5.294-1.162Z" transform="translate(-2265.013 -663.325)" fill="#a8d29f"/>
            <path id="패스_465" data-name="패스 465" d="M2403.682,722.037s9.039,2.927,10.072,6.2a6.867,6.867,0,0,0,.86,3.142v.645a9.41,9.41,0,0,0-1.463-2.5s2.022-2.841-9.469-7.489" transform="translate(-2281.536 -683.549)" fill="#82b378"/>
            <path id="패스_466" data-name="패스 466" d="M2512.72,814.884a5.962,5.962,0,0,1,.6,4.693l-.359-.1s.348-2.838-.381-4.265.14-.332.14-.332" transform="translate(-2379.837 -767.162)" fill="#82b378"/>
            <path id="패스_467" data-name="패스 467" d="M2536.787,575.915s-5.908-3.309-3.151-7.8c0,0,2.206-2.757,4.569-3.466,0,0-1.26,6.7,0,6.854s.867-7.562.867-7.562,6.223-2.994,8.666-2.757c0,0-3.86,6.539-2.6,6.381s5.593-6.775,5.593-6.775,6.381-1.182,7.4,2.6-.63,5.672-1.575,5.908-7.011.158-6.853.945,4.253,2.048,6.538,1.339c0,0-2.521,6.223-5.83,5.908s-4.333-2.363-6.381-2.521-3.545.394-2.521.945,4.49.181,6.144,1.587,2.994,2.273-.079,2.9-8.586.236-9.689-2.127Z" transform="translate(-2398.458 -537.542)" fill="#a8d29f"/>
            <path id="패스_468" data-name="패스 468" d="M2576.789,601.532s-16.543,5.357-18.434,11.344a12.565,12.565,0,0,1-1.575,5.751v1.182s1.733-4.018,2.678-4.569c0,0-3.7-5.2,17.331-13.707" transform="translate(-2420.027 -574.561)" fill="#82b378"/>
            <path id="패스_469" data-name="패스 469" d="M2542.346,771.465a10.912,10.912,0,0,0-1.1,8.59l.656-.176s-.637-5.194.7-7.807-.257-.607-.257-.607" transform="translate(-2405.593 -727.61)" fill="#82b378"/>
            <path id="패스_470" data-name="패스 470" d="M2474.465,853.254a11.573,11.573,0,1,1-23.146,0Z" transform="translate(-2324.763 -802.32)" fill="#ed7d2b"/>
            <path id="패스_471" data-name="패스 471" d="M2466.846,853.254c0,4.336-1.039,8.752-4.568,10.734-.587.33-2.551-.027-3.2.2a11.578,11.578,0,0,1-7.764-10.932Z" transform="translate(-2324.762 -802.313)" fill="#f99746"/>
            <path id="패스_472" data-name="패스 472" d="M2473.129,965.7h-23.466a1.429,1.429,0,0,1,1.428-1.428H2471.7a1.428,1.428,0,0,1,1.427,1.428" transform="translate(-2323.267 -902.675)" fill="#ed7d2b"/>
            <path id="패스_473" data-name="패스 473" d="M2462.133,965.7h-12.471a1.428,1.428,0,0,1,1.428-1.428h9.615a1.428,1.428,0,0,1,1.427,1.428" transform="translate(-2323.266 -902.675)" fill="#f99746"/>
            <rect id="사각형_334" data-name="사각형 334" width="23.79" height="0.355" transform="translate(126.175 51.053)" fill="#b5453c"/>
          </g>
        </g>
      </g>
    </g>
    <g id="그룹_142" data-name="그룹 142" transform="translate(0 12)" opacity="0.2">
      <line id="선_28" data-name="선 28" y1="105" x2="76" transform="translate(70.5 355.5)" fill="none" stroke="#a8d29f" stroke-width="1"/>
      <line id="선_29" data-name="선 29" x1="154" y1="46" transform="translate(146.5 355.5)" fill="none" stroke="#a8d29f" stroke-width="1"/>
      <line id="선_30" data-name="선 30" x2="106" y2="17" transform="translate(70.5 460.5)" fill="none" stroke="#a8d29f" stroke-width="1"/>
      <line id="선_31" data-name="선 31" x1="124" y2="75" transform="translate(176.5 401.5)" fill="none" stroke="#a8d29f" stroke-width="1"/>
      <line id="선_32" data-name="선 32" x2="30" y2="121" transform="translate(146.5 355.5)" fill="none" stroke="#a8d29f" stroke-width="1"/>
      <line id="선_33" data-name="선 33" y1="59" x2="230" transform="translate(70.5 401.5)" fill="none" stroke="#a8d29f" stroke-width="1"/>
    </g>
    <path id="패스_224391" data-name="패스 224391" d="M26,0A26,26,0,1,1,0,26,26,26,0,0,1,26,0Z" transform="translate(120 341)" fill="#fff" opacity="0.1"/>
    <path id="패스_224390" data-name="패스 224390" d="M20,0A20,20,0,1,1,0,20,20,20,0,0,1,20,0Z" transform="translate(280 393)" fill="#fff" opacity="0.1"/>
    <circle id="타원_109" data-name="타원 109" cx="16" cy="16" r="16" transform="translate(160 472)" fill="#fff" opacity="0.1"/>
    <path id="패스_224392" data-name="패스 224392" d="M24,0A24,24,0,1,1,0,24,24,24,0,0,1,24,0Z" transform="translate(46 448)" fill="#fff" opacity="0.1"/>
    <g id="그룹_137" data-name="그룹 137" transform="translate(-9136.973 -5366.879)">
      <rect id="사각형_310" data-name="사각형 310" width="16" height="22" rx="2" transform="translate(9272.973 5722.879)" fill="#a8d29f"/>
      <rect id="사각형_311" data-name="사각형 311" width="12" height="4" rx="1" transform="translate(9280.973 5738.879)" fill="#82b378"/>
      <circle id="타원_101" data-name="타원 101" cx="1.36" cy="1.36" r="1.36" transform="translate(9275.267 5725.72)" fill="#f3f3ff"/>
      <circle id="타원_102" data-name="타원 102" cx="1.36" cy="1.36" r="1.36" transform="translate(9279.8 5725.72)" fill="#f3f3ff"/>
      <circle id="타원_103" data-name="타원 103" cx="1.36" cy="1.36" r="1.36" transform="translate(9284.333 5725.72)" fill="#f3f3ff"/>
      <circle id="타원_101-2" data-name="타원 101" cx="1.36" cy="1.36" r="1.36" transform="translate(9275.267 5730.253)" fill="#f3f3ff"/>
      <circle id="타원_102-2" data-name="타원 102" cx="1.36" cy="1.36" r="1.36" transform="translate(9279.8 5730.253)" fill="#f3f3ff"/>
      <circle id="타원_103-2" data-name="타원 103" cx="1.36" cy="1.36" r="1.36" transform="translate(9284.333 5730.253)" fill="#f3f3ff"/>
      <circle id="타원_102-3" data-name="타원 102" cx="1.36" cy="1.36" r="1.36" transform="translate(9279.8 5734.786)" fill="#f3f3ff"/>
    </g>
    <g id="그룹_138" data-name="그룹 138" transform="translate(-9090.851 -5221.026)">
      <path id="사각형_312" data-name="사각형 312" d="M2,0H8A0,0,0,0,1,8,0V22a0,0,0,0,1,0,0H2a2,2,0,0,1-2-2V2A2,2,0,0,1,2,0Z" transform="translate(9151.851 5682.026)" fill="#82b378"/>
      <path id="패스_475" data-name="패스 475" d="M0,0H8.972a1.38,1.38,0,0,1,1.38,1.38V20.7a1.38,1.38,0,0,1-1.38,1.38H0Z" transform="translate(9159.471 5681.984)" fill="#a8d29f"/>
      <rect id="사각형_314" data-name="사각형 314" width="4" height="8" rx="0.5" transform="translate(9162.851 5685.026)" fill="#fff"/>
      <rect id="사각형_336" data-name="사각형 336" width="1" height="3" rx="0.5" transform="translate(9159.851 5691.026)" fill="#fff"/>
      <rect id="사각형_337" data-name="사각형 337" width="1" height="3" rx="0.5" transform="translate(9157.851 5691.026)" fill="#fff"/>
    </g>
    <g id="그룹_139" data-name="그룹 139" transform="translate(-8683.398 -5759.256)">
      <rect id="사각형_317" data-name="사각형 317" width="4" height="1" rx="0.5" transform="translate(8975.398 6162.256)" fill="#82b378"/>
      <rect id="사각형_318" data-name="사각형 318" width="12.816" height="0.854" rx="0.427" transform="translate(8980.98 6170.978)" fill="#82b378"/>
      <rect id="사각형_320" data-name="사각형 320" width="12.816" height="0.854" rx="0.427" transform="translate(8980.771 6169.81) rotate(-30)" fill="#82b378"/>
      <path id="패스_393" data-name="패스 393" d="M-.146,0H3.272a.979.979,0,0,1,.854,1.068V7.476a.979.979,0,0,1-.854,1.068H.709A.979.979,0,0,1-.146,7.476L-1,1.068A.979.979,0,0,1-.146,0Z" transform="translate(8976 6163.289)" fill="#a8d29f"/>
      <path id="사각형_319" data-name="사각형 319" d="M.556,0H14.444A.556.556,0,0,1,15,.556v0A4.444,4.444,0,0,1,10.556,5H1.111A1.111,1.111,0,0,1,0,3.889V.556A.556.556,0,0,1,.556,0Z" transform="translate(8977.398 6172.256)" fill="#a8d29f"/>
      <path id="패스_394" data-name="패스 394" d="M-.146,0H4.126l.854,4.1a.952.952,0,0,1-.854,1.025H-.146A.952.952,0,0,1-1,4.1Z" transform="translate(8981.98 6177.385)" fill="#a8d29f"/>
    </g>
    <g id="그룹_141" data-name="그룹 141" transform="translate(-49.188 -73.188)">
      <g id="그룹_20" data-name="그룹 20" transform="translate(217 553)">
        <path id="패스_71" data-name="패스 71" d="M4.679,0H11.7a4.679,4.679,0,0,1,4.679,4.679V11.7A4.679,4.679,0,0,1,11.7,16.377H4.679A4.679,4.679,0,0,1,0,11.7V4.679A4.679,4.679,0,0,1,4.679,0Z" fill="#a8d29f"/>
      </g>
      <g id="사각형_326" data-name="사각형 326" transform="translate(219.188 555.188)" fill="#fff" stroke="#82b378" stroke-width="0.5">
        <rect width="12" height="12" rx="6" stroke="none"/>
        <rect x="0.25" y="0.25" width="11.5" height="11.5" rx="5.75" fill="none"/>
      </g>
      <g id="그룹_127" data-name="그룹 127" transform="translate(220.722 556.722)">
        <circle id="타원_95" data-name="타원 95" cx="4" cy="4" r="4" transform="translate(0.467 0.466)" fill="#82b378"/>
      </g>
    </g>
  </g>
</svg>
