<svg id="구성_요소_55_2" data-name="구성 요소 55 – 2" xmlns="http://www.w3.org/2000/svg" width="20" height="20" viewBox="0 0 20 20">
  <g id="그룹_54" data-name="그룹 54" transform="translate(0.906 2.306)">
    <path id="Icon_health-man" data-name="Icon health-man" d="M13.565,3.979A1.018,1.018,0,1,1,12.548,3,1,1,0,0,1,13.565,3.979ZM11.022,6.628a2.417,2.417,0,0,0-.143.488,7.092,7.092,0,0,0-.111,1.269.509.509,0,0,1-1.017,0,8.008,8.008,0,0,1,.129-1.454,2.874,2.874,0,0,1,.322-.91,1.089,1.089,0,0,1,.934-.574h2.826a1.089,1.089,0,0,1,.934.574,2.872,2.872,0,0,1,.322.91,8.008,8.008,0,0,1,.129,1.454.509.509,0,0,1-1.017,0,7.092,7.092,0,0,0-.111-1.269,2.426,2.426,0,0,0-.143-.488V12.3a.51.51,0,0,1-1.016.037L12.8,9.158q0-.019,0-.037h-.509q0,.019,0,.037l-.254,3.183a.51.51,0,0,1-1.016-.037Z" transform="translate(-3.455 1.197)" fill="#fff"/>
    <path id="Icon_carbon-home" data-name="Icon carbon-home" d="M10.589,2.377a.624.624,0,0,0-.753,0L1.125,9.009l.754.93,1.065-.811v7.327a1.2,1.2,0,0,0,1.212,1.184H16.281a1.2,1.2,0,0,0,1.212-1.184V9.134l1.065.811.754-.93ZM4.156,16.456V8.206L10.218,3.6l6.062,4.617v8.244Z" transform="translate(-1.125 -2.251)" fill="#fff"/>
  </g>
  <rect id="사각형_285" data-name="사각형 285" width="20" height="20" fill="none"/>
</svg>
