<svg id="구성_요소_105_2" data-name="구성 요소 105 – 2" xmlns="http://www.w3.org/2000/svg" width="24" height="24" viewBox="0 0 24 24">
  <g id="Icon_ion-ios-remove-circle-outline" data-name="Icon ion-ios-remove-circle-outline" transform="translate(0.625 0.625)">
    <path id="패스_224181" data-name="패스 224181" d="M18.4,16.875h-7.25a.591.591,0,0,0-.641.589.6.6,0,0,0,.641.589H18.4a.591.591,0,1,0,0-1.177Z" transform="translate(-3.403 -6.089)"/>
    <path id="패스_224182" data-name="패스 224182" d="M11.375,4.452a6.92,6.92,0,1,1-4.9,2.027,6.877,6.877,0,0,1,4.9-2.027m0-1.077a8,8,0,1,0,8,8A8,8,0,0,0,11.375,3.375Z"/>
  </g>
  <rect id="사각형_13031" data-name="사각형 13031" width="24" height="24" fill="none"/>
</svg>
