<svg id="구성_요소_68_9" data-name="구성 요소 68 – 9" xmlns="http://www.w3.org/2000/svg" width="20" height="20" viewBox="0 0 20 20">
  <rect id="사각형_12814" data-name="사각형 12814" width="20" height="20" fill="none"/>
  <path id="합치기_3" data-name="합치기 3" d="M15140.5,4524.888a.5.5,0,0,1,0-1h5.288a.873.873,0,0,1,.183-.544l2.746-3.576V4518.1l1.411,1.613.309.616a.973.973,0,0,1-.141.271l-2.528,3.283h4.966l-2.122-4.5-1.971-2.252a.908.908,0,0,1-.217-.628l.164-3.062-.51.571-.544,3.268a.879.879,0,1,1-1.734-.289l.585-3.515a.891.891,0,0,1,.21-.441l2.347-2.636a.888.888,0,0,1,.658-.3h1.692a1.467,1.467,0,0,1,1.457,1.621l-.506,4.785a1.989,1.989,0,0,1-.1.464l-.373,1.061.251.282a.973.973,0,0,1,.134.205l2.343,4.983a.882.882,0,0,1,.095.392.5.5,0,0,1-.087.993Zm13.786-9.8a.864.864,0,0,1-.62-.259l-.578-.578.239-2.161a.456.456,0,0,1,.008-.076l1.316,1.316h1.688a.879.879,0,0,1,0,1.758Zm-5.276-7.327a1.759,1.759,0,1,1,1.762,1.757A1.759,1.759,0,0,1,15149.008,4507.758Z" transform="translate(-15138.5 -4505.389)" fill="#818181"/>
</svg>
