<svg id="구성_요소_68_9" data-name="구성 요소 68 – 9" xmlns="http://www.w3.org/2000/svg" width="20" height="20" viewBox="0 0 20 20">
  <circle id="타원_126" data-name="타원 126" cx="10" cy="10" r="10" fill="#818181"/>
  <rect id="사각형_12814" data-name="사각형 12814" width="20" height="20" fill="none"/>
  <path id="합치기_3" data-name="합치기 3" d="M15153.63,4524.773a.882.882,0,0,1-.727-.521l-2.294-4.869-1.971-2.252a.908.908,0,0,1-.217-.628l.164-3.062-.51.571-.544,3.268a.879.879,0,1,1-1.734-.289l.585-3.515a.891.891,0,0,1,.21-.441l2.347-2.636a.888.888,0,0,1,.658-.3h1.692a1.467,1.467,0,0,1,1.457,1.621l-.506,4.785a1.989,1.989,0,0,1-.1.464l-.373,1.061.251.282a.973.973,0,0,1,.134.205l2.343,4.983a.877.877,0,0,1-.783,1.274A.543.543,0,0,1,15153.63,4524.773Zm-7.5-.2a.879.879,0,0,1-.159-1.232l2.746-3.576V4518.1l1.411,1.613.309.616a.973.973,0,0,1-.141.271l-2.933,3.808a.871.871,0,0,1-.7.346A.891.891,0,0,1,15146.128,4524.576Zm8.156-9.491a.864.864,0,0,1-.62-.259l-.578-.578.239-2.161a.456.456,0,0,1,.008-.076l1.316,1.316h1.688a.879.879,0,0,1,0,1.758Zm-5.276-7.327a1.759,1.759,0,1,1,1.762,1.757A1.759,1.759,0,0,1,15149.008,4507.758Z" transform="translate(-15140.5 -4505.389)" fill="#fff"/>
</svg>
