<svg id="구성_요소_103_1" data-name="구성 요소 103 – 1" xmlns="http://www.w3.org/2000/svg" width="28" height="28" viewBox="0 0 28 28">
  <path id="bg" d="M28,14.2a30.717,30.717,0,0,0-.557-6.539A8.338,8.338,0,0,0,20.372.609,33.272,33.272,0,0,0,7.7.609,8.271,8.271,0,0,0,.621,7.641a32.934,32.934,0,0,0,0,12.728,8.187,8.187,0,0,0,6.828,6.953,31.746,31.746,0,0,0,12.669.08c4.584-.907,6.828-3.4,7.512-8A33.7,33.7,0,0,0,28,14.2Z" fill="#ebf7ec"/>
  <path id="Icon_fluent-location-filled" data-name="Icon fluent-location-filled" d="M17.349,15.554a7,7,0,1,0-9.9,0l1.521,1.5,2.043,1.985.133.118a1.994,1.994,0,0,0,2.64-.118l2.435-2.37,1.128-1.114ZM12.4,13.6a3,3,0,1,1,3-3A3,3,0,0,1,12.4,13.6Z" transform="translate(1.601 2.4)" fill="#47b752"/>
</svg>
