<svg id="구성_요소_38_1" data-name="구성 요소 38 – 1" xmlns="http://www.w3.org/2000/svg" xmlns:xlink="http://www.w3.org/1999/xlink" width="80" height="80" viewBox="0 0 80 80">
  <defs>
    <linearGradient id="linear-gradient" x1="0.259" y1="-0.797" x2="0.79" y2="1.327" gradientUnits="objectBoundingBox">
      <stop offset="0" stop-color="#f4fbf4"/>
      <stop offset="1" stop-color="#36a741"/>
    </linearGradient>
  </defs>
  <circle id="타원_96" data-name="타원 96" cx="40" cy="40" r="40" fill="#ecf8ed"/>
  <g id="그룹_160" data-name="그룹 160" transform="translate(11345 7984)">
    <path id="패스_224139" data-name="패스 224139" d="M26.58,29.987a29.552,29.552,0,0,1,15.157,4.1,18.471,18.471,0,0,1,4.853,4.146A8.635,8.635,0,0,1,48.66,43.48,6.14,6.14,0,0,1,46.2,48.352,13.83,13.83,0,0,1,41.087,50.7,60.427,60.427,0,0,1,26.58,52.067,60.3,60.3,0,0,1,12.073,50.7a13.83,13.83,0,0,1-5.113-2.345A6.137,6.137,0,0,1,4.5,43.48a8.635,8.635,0,0,1,2.071-5.248,18.432,18.432,0,0,1,4.853-4.146A29.559,29.559,0,0,1,26.58,29.987Z" transform="translate(-11331.58 -7969.533)" fill="url(#linear-gradient)"/>
    <circle id="타원_111" data-name="타원 111" cx="15" cy="15" r="15" transform="translate(-11320 -7972)" fill="url(#linear-gradient)"/>
  </g>
</svg>
