<svg id="구성_요소_74_1" data-name="구성 요소 74 – 1" xmlns="http://www.w3.org/2000/svg" width="28" height="28" viewBox="0 0 28 28">
  <path id="bg" d="M28,14.2a30.717,30.717,0,0,0-.557-6.539A8.338,8.338,0,0,0,20.372.609,33.272,33.272,0,0,0,7.7.609,8.271,8.271,0,0,0,.621,7.641a32.934,32.934,0,0,0,0,12.728,8.187,8.187,0,0,0,6.828,6.953,31.746,31.746,0,0,0,12.669.08c4.584-.907,6.828-3.4,7.512-8A33.7,33.7,0,0,0,28,14.2Z" fill="#ebf5fe"/>
  <g id="그룹_118" data-name="그룹 118" transform="translate(-9145.367 -5676.84)">
    <path id="사각형_312" data-name="사각형 312" d="M2,0H6A0,0,0,0,1,6,0V18a0,0,0,0,1,0,0H2a2,2,0,0,1-2-2V2A2,2,0,0,1,2,0Z" transform="translate(9152.366 5681.839)" fill="#3c8ace"/>
    <path id="사각형_313" data-name="사각형 313" d="M0,0H6A2,2,0,0,1,8,2V16a2,2,0,0,1-2,2H0a0,0,0,0,1,0,0V0A0,0,0,0,1,0,0Z" transform="translate(9158.366 5681.839)" fill="#5aaeee"/>
    <rect id="사각형_314" data-name="사각형 314" width="3" height="6" rx="0.5" transform="translate(9161.366 5684.839)" fill="#ebf5fe"/>
    <rect id="사각형_315" data-name="사각형 315" width="1" height="3" rx="0.5" transform="translate(9158.366 5688.839)" fill="#ebf5fe"/>
    <rect id="사각형_316" data-name="사각형 316" width="1" height="3" rx="0.5" transform="translate(9156.366 5688.839)" fill="#ebf5fe"/>
  </g>
</svg>
