<svg id="구성_요소_77_1" data-name="구성 요소 77 – 1" xmlns="http://www.w3.org/2000/svg" width="16" height="16" viewBox="0 0 16 16">
  <path id="Icon_tabler-photo-sensor-3" data-name="Icon tabler-photo-sensor-3" d="M17.162,6h.859a1.717,1.717,0,0,1,1.717,1.717v.859m0,8.586v.859a1.717,1.717,0,0,1-1.717,1.717h-.859m-8.586,0H7.717A1.717,1.717,0,0,1,6,18.02v-.859M6,8.576V7.717A1.717,1.717,0,0,1,7.717,6h.859m1.717,6.869a2.576,2.576,0,1,0,2.576-2.576,2.576,2.576,0,0,0-2.576,2.576m2.576,5.151v1.717M6,12.869H7.717M12.869,6V7.717m6.869,5.151H18.02" transform="translate(-4.869 -4.869)" fill="none" stroke="#404040" stroke-linecap="round" stroke-linejoin="round" stroke-width="1"/>
  <rect id="사각형_12829" data-name="사각형 12829" width="16" height="16" fill="none"/>
</svg>
