<svg id="Icon_ming-settings-1-line" data-name="Icon ming-settings-1-line" xmlns="http://www.w3.org/2000/svg" width="24" height="24" viewBox="0 0 24 24">
  <path id="패스_224145" data-name="패스 224145" d="M24,0V24H0V0ZM12.593,23.258l-.011,0-.071.035-.02,0-.014,0-.071-.035a.02.02,0,0,0-.024,0l0,.01-.017.428,0,.02.01.013.1.074.015,0,.012,0,.1-.074.012-.016,0-.017-.017-.427a.021.021,0,0,0-.017-.018Zm.265-.113-.013,0-.185.093-.01.01,0,.011.018.43,0,.012.008.007.2.093a.025.025,0,0,0,.029-.008l0-.014-.034-.614a.027.027,0,0,0-.02-.022Zm-.715,0a.023.023,0,0,0-.027.006l-.006.014-.034.614a.025.025,0,0,0,.017.024l.015,0,.2-.093.01-.008,0-.011.017-.43,0-.012-.01-.01Z" fill="none"/>
  <path id="패스_224158" data-name="패스 224158" d="M12,3.7,5.021,7.684v8.4L12,19.917l7.022-3.832v-8.4Z" fill="none" stroke="#818181" stroke-linecap="round" stroke-linejoin="round" stroke-width="1.5"/>
  <g id="타원_115" data-name="타원 115" transform="translate(8 8)" fill="#fff" stroke="#818181" stroke-width="1.5">
    <circle cx="4" cy="4" r="4" stroke="none"/>
    <circle cx="4" cy="4" r="3.25" fill="none"/>
  </g>
</svg>
