<svg id="구성_요소_48_1" data-name="구성 요소 48 – 1" xmlns="http://www.w3.org/2000/svg" width="48" height="48" viewBox="0 0 48 48">
  <path id="bg" d="M47.992,24.335a52.657,52.657,0,0,0-.955-11.21c-1.391-6.709-5.4-10.773-12.114-12.082a57.038,57.038,0,0,0-21.718,0C6.494,2.325,2.374,6.389,1.064,13.1a56.458,56.458,0,0,0,0,21.819c1.282,6.491,5.184,10.582,11.7,11.919a54.422,54.422,0,0,0,21.718.136c7.858-1.555,11.7-5.837,12.878-13.719A57.779,57.779,0,0,0,47.992,24.335Z" fill="#fffbe1"/>
  <g id="그룹_120" data-name="그룹 120" transform="translate(-8962 -6150)">
    <rect id="사각형_317" data-name="사각형 317" width="6" height="1" rx="0.5" transform="translate(8975 6162)" fill="#e18b60"/>
    <rect id="사각형_318" data-name="사각형 318" width="15" height="1" rx="0.5" transform="translate(8982 6172.5)" fill="#e18b60"/>
    <rect id="사각형_320" data-name="사각형 320" width="15" height="1" rx="0.5" transform="translate(8981.755 6171.134) rotate(-30)" fill="#e18b60"/>
    <path id="패스_393" data-name="패스 393" d="M0,0H4A1.146,1.146,0,0,1,5,1.25v7.5A1.146,1.146,0,0,1,4,10H1A1.146,1.146,0,0,1,0,8.75l-1-7.5A1.146,1.146,0,0,1,0,0Z" transform="translate(8976 6163.5)" fill="#ffc94e"/>
    <path id="사각형_319" data-name="사각형 319" d="M.667,0H17.333A.667.667,0,0,1,18,.667v0A5.333,5.333,0,0,1,12.667,6H1.333A1.333,1.333,0,0,1,0,4.667v-4A.667.667,0,0,1,.667,0Z" transform="translate(8978 6174)" fill="#ffc94e"/>
    <path id="패스_394" data-name="패스 394" d="M0,0H5L6,4.8A1.114,1.114,0,0,1,5,6H0A1.114,1.114,0,0,1-1,4.8Z" transform="translate(8983 6180)" fill="#ffc94e"/>
  </g>
</svg>
