<svg id="구성_요소_79_1" data-name="구성 요소 79 – 1" xmlns="http://www.w3.org/2000/svg" width="28" height="28" viewBox="0 0 28 28">
  <path id="bg" d="M28,14.2a30.717,30.717,0,0,0-.557-6.539A8.338,8.338,0,0,0,20.372.609,33.272,33.272,0,0,0,7.7.609,8.271,8.271,0,0,0,.621,7.641a32.934,32.934,0,0,0,0,12.728,8.187,8.187,0,0,0,6.828,6.953,31.746,31.746,0,0,0,12.669.08c4.584-.907,6.828-3.4,7.512-8A33.7,33.7,0,0,0,28,14.2Z" fill="#fffbe1"/>
  <g id="그룹_120" data-name="그룹 120" transform="translate(-8968.426 -6155.601)">
    <path id="합치기_5" data-name="합치기 5" d="M5.063,7.763a.337.337,0,1,1,0-.675h9.452a.337.337,0,0,1,0,.675Zm-.335-1.3A.337.337,0,0,1,4.852,6l8.186-4.726a.338.338,0,0,1,.337.585L5.189,6.582a.334.334,0,0,1-.168.045A.338.338,0,0,1,4.729,6.458ZM.338.675A.338.338,0,0,1,.338,0H3.713a.338.338,0,0,1,0,.675Z" transform="translate(8974.999 6162)" fill="#e18b60"/>
    <path id="합치기_4" data-name="합치기 4" d="M5.4,15.189a.752.752,0,0,1-.676-.81l.676-3.24H8.776l.675,3.24a.752.752,0,0,1-.675.81Zm-2.476-4.05a.9.9,0,0,1-.9-.9v-2.7a.45.45,0,0,1,.45-.45H13.727a.45.45,0,0,1,.45.45,3.6,3.6,0,0,1-3.6,3.6ZM1.35,6.751a.774.774,0,0,1-.675-.844L0,.843A.774.774,0,0,1,.675,0h2.7A.773.773,0,0,1,4.05.843V5.907a.773.773,0,0,1-.675.844Z" transform="translate(8975 6163.013)" fill="#ffc94e"/>
  </g>
</svg>
